<?xml version="1.0" standalone="no"?>
<!DOCTYPE svg PUBLIC "-//W3C//DTD SVG 20010904//EN"
 "http://www.w3.org/TR/2001/REC-SVG-20010904/DTD/svg10.dtd">
<svg version="1.0" xmlns="http://www.w3.org/2000/svg"
 width="123.000000pt" height="103.000000pt" viewBox="0 0 123.000000 103.000000"
 preserveAspectRatio="xMidYMid meet">

<g transform="translate(0.000000,103.000000) scale(0.100000,-0.100000)"
fill="#000000" stroke="none">
<path d="M80 815 c0 -175 0 -176 22 -173 17 2 24 13 32 58 27 136 145 233 281
233 60 0 135 -18 135 -32 0 -4 -11 -17 -24 -30 -13 -12 -36 -47 -52 -79 -24
-48 -29 -69 -29 -133 0 -71 2 -80 32 -117 l32 -40 -20 -18 c-40 -36 -52 -73
-47 -143 5 -71 30 -129 80 -193 l30 -38 -29 -11 c-15 -7 -55 -14 -88 -16 -146
-11 -282 98 -301 241 -6 39 -10 46 -29 46 -21 0 -24 -6 -27 -53 -3 -28 -4
-104 -4 -167 l1 -115 220 0 c194 0 226 2 262 19 40 18 42 18 97 -3 51 -19 78
-21 266 -21 l210 0 0 170 0 170 -24 0 c-20 0 -25 -7 -31 -37 -34 -185 -224
-301 -385 -237 l-40 16 30 34 c43 50 68 103 79 172 12 72 2 118 -36 162 l-26
31 26 27 c39 42 49 94 32 175 -13 64 -74 177 -96 177 -5 0 -9 4 -9 9 0 17 73
34 141 34 91 0 165 -35 219 -105 37 -46 70 -127 70 -170 0 -13 7 -18 25 -18
l25 0 0 176 0 176 -212 -4 c-195 -3 -217 -5 -263 -26 l-51 -23 -49 23 c-46 21
-68 23 -262 26 l-213 4 0 -177z m140 119 c0 -3 -20 -26 -45 -51 l-45 -45 0 51
0 51 45 0 c25 0 45 -3 45 -6z m856 -8 c3 -8 4 -30 2 -50 l-3 -37 -50 50 -49
51 47 0 c32 0 49 -5 53 -14z m-438 -89 c66 -68 94 -207 52 -260 -24 -30 -78
-50 -113 -42 -14 4 -38 20 -53 36 -25 26 -29 38 -28 87 0 35 8 75 21 102 20
45 69 110 82 110 4 0 22 -15 39 -33z m21 -371 c70 -37 70 -160 -2 -264 -16
-24 -35 -46 -43 -49 -36 -14 -108 97 -120 184 -14 108 73 176 165 129z m-479
-339 l44 -47 -47 0 -47 0 0 52 c0 28 1 49 3 47 1 -2 22 -26 47 -52z m900 -2
l0 -45 -51 0 -51 0 44 44 c23 24 46 44 51 45 4 1 7 -19 7 -44z"/>
</g>
</svg>
